<svg width="10" height="10" viewBox="0 0 10 10" fill="none" xmlns="http://www.w3.org/2000/svg">
<path d="M9.0002 4.36982C9.1236 5.20202 8.9815 6.05202 8.594 6.79882C8.2065 7.54562 7.5933 8.15122 6.8418 8.52952C6.0903 8.90772 5.2386 9.03942 4.408 8.90572C3.57732 8.77212 2.80996 8.37992 2.21503 7.78502C1.62011 7.19002 1.22793 6.42272 1.09426 5.59202C0.960601 4.76132 1.09226 3.90971 1.47052 3.15819C1.84878 2.40667 2.45438 1.79356 3.20118 1.40606C3.94798 1.01856 4.7979 0.876397 5.6302 0.999817C6.4791 1.1257 7.265 1.52128 7.8719 2.12812C8.4787 2.73497 8.8743 3.52089 9.0002 4.36982Z" stroke="white" stroke-width="1.5" stroke-linecap="round" stroke-linejoin="round"/>
</svg>
