<svg width="33" height="13" viewBox="0 0 33 13" fill="none" xmlns="http://www.w3.org/2000/svg">
<path d="M1.53906 4.57031C2.17969 3.78385 3.01302 3.39062 4.03906 3.39062C5.82552 3.39062 6.72656 4.39844 6.74219 6.41406V12H5.29688V6.40625C5.29167 5.79688 5.15104 5.34635 4.875 5.05469C4.60417 4.76302 4.17969 4.61719 3.60156 4.61719C3.13281 4.61719 2.72135 4.74219 2.36719 4.99219C2.01302 5.24219 1.73698 5.57031 1.53906 5.97656V12H0.09375V0H1.53906V4.57031ZM12.4141 12.1562C11.2682 12.1562 10.3359 11.7812 9.61719 11.0312C8.89844 10.276 8.53906 9.26823 8.53906 8.00781V7.74219C8.53906 6.90365 8.69792 6.15625 9.01562 5.5C9.33854 4.83854 9.78646 4.32292 10.3594 3.95312C10.9375 3.57812 11.5625 3.39062 12.2344 3.39062C13.3333 3.39062 14.1875 3.7526 14.7969 4.47656C15.4062 5.20052 15.7109 6.23698 15.7109 7.58594V8.1875H9.98438C10.0052 9.02083 10.2474 9.69531 10.7109 10.2109C11.1797 10.7214 11.7734 10.9766 12.4922 10.9766C13.0026 10.9766 13.4349 10.8724 13.7891 10.6641C14.1432 10.4557 14.4531 10.1797 14.7188 9.83594L15.6016 10.5234C14.8932 11.612 13.8307 12.1562 12.4141 12.1562ZM12.2344 4.57812C11.651 4.57812 11.1615 4.79167 10.7656 5.21875C10.3698 5.64062 10.125 6.23438 10.0312 7H14.2656V6.89062C14.224 6.15625 14.026 5.58854 13.6719 5.1875C13.3177 4.78125 12.8385 4.57812 12.2344 4.57812ZM21.4766 4.84375C21.2578 4.80729 21.0208 4.78906 20.7656 4.78906C19.8177 4.78906 19.1745 5.19271 18.8359 6V12H17.3906V3.54688H18.7969L18.8203 4.52344C19.2943 3.76823 19.9661 3.39062 20.8359 3.39062C21.1172 3.39062 21.3307 3.42708 21.4766 3.5V4.84375ZM26.1641 12.1562C25.0182 12.1562 24.0859 11.7812 23.3672 11.0312C22.6484 10.276 22.2891 9.26823 22.2891 8.00781V7.74219C22.2891 6.90365 22.4479 6.15625 22.7656 5.5C23.0885 4.83854 23.5365 4.32292 24.1094 3.95312C24.6875 3.57812 25.3125 3.39062 25.9844 3.39062C27.0833 3.39062 27.9375 3.7526 28.5469 4.47656C29.1562 5.20052 29.4609 6.23698 29.4609 7.58594V8.1875H23.7344C23.7552 9.02083 23.9974 9.69531 24.4609 10.2109C24.9297 10.7214 25.5234 10.9766 26.2422 10.9766C26.7526 10.9766 27.1849 10.8724 27.5391 10.6641C27.8932 10.4557 28.2031 10.1797 28.4688 9.83594L29.3516 10.5234C28.6432 11.612 27.5807 12.1562 26.1641 12.1562ZM25.9844 4.57812C25.401 4.57812 24.9115 4.79167 24.5156 5.21875C24.1198 5.64062 23.875 6.23438 23.7812 7H28.0156V6.89062C27.974 6.15625 27.776 5.58854 27.4219 5.1875C27.0677 4.78125 26.5885 4.57812 25.9844 4.57812ZM31.1719 11.2422C31.1719 10.9922 31.2448 10.7839 31.3906 10.6172C31.5417 10.4505 31.7656 10.3672 32.0625 10.3672C32.3594 10.3672 32.5833 10.4505 32.7344 10.6172C32.8906 10.7839 32.9688 10.9922 32.9688 11.2422C32.9688 11.4818 32.8906 11.6823 32.7344 11.8438C32.5833 12.0052 32.3594 12.0859 32.0625 12.0859C31.7656 12.0859 31.5417 12.0052 31.3906 11.8438C31.2448 11.6823 31.1719 11.4818 31.1719 11.2422Z" fill="#5B5855"/>
</svg>
